' Generated by UML Generator
' Encoded: bP9FJyCm3CNl-HIMk6pQMd7kOHeC2N6RDCG5SN1JiqLhaohnaCOOdnqdtH_APUCIAS_nUpyvdWP6pvkcLc5jR8iU6z0rXd37x4svONhIpYxC9y6jMfcAG1klQrBAM2R_ZffWxXqxthO4EmNmhLsx7GmBU5PxfR0Cx55pPmelj3BIdHxUb1vjLS12Wkmo2eshgFujjDveAa2Yv9PbSemE3eDUynXwhMCuDmvZqnb9BkowLr4uH0benpT3dzYoGCWpjx7SJvVwrSbZw9j4aYmQQFH5JEgXoVqItBrPTvFBLXWUARgKpjM4ziGNd_m3yAzFGkmyv2XIOeyo2fSmJ-lmGC4ixHnP5iKcyD5EresDtaE3nWxGByEn__LDh3wSgQBHSKto_6jozbFnTx9Cf4Cz2Na-ISDBq-bLanBBYNfAjf8z_m4
' URL: http://www.plantuml.com/plantuml/uml/bP9FJyCm3CNl-HIMk6pQMd7kOHeC2N6RDCG5SN1JiqLhaohnaCOOdnqdtH_APUCIAS_nUpyvdWP6pvkcLc5jR8iU6z0rXd37x4svONhIpYxC9y6jMfcAG1klQrBAM2R_ZffWxXqxthO4EmNmhLsx7GmBU5PxfR0Cx55pPmelj3BIdHxUb1vjLS12Wkmo2eshgFujjDveAa2Yv9PbSemE3eDUynXwhMCuDmvZqnb9BkowLr4uH0benpT3dzYoGCWpjx7SJvVwrSbZw9j4aYmQQFH5JEgXoVqItBrPTvFBLXWUARgKpjM4ziGNd_m3yAzFGkmyv2XIOeyo2fSmJ-lmGC4ixHnP5iKcyD5EresDtaE3nWxGByEn__LDh3wSgQBHSKto_6jozbFnTx9Cf4Cz2Na-ISDBq-bLanBBYNfAjf8z_m4
' Generated on: 2025-11-25T12:38:33.004828539

@startuml
skinparam classAttributeIconSize 0
hide circle

interface Prototype {
  ~copy(): T
}

abstract class Vehicle {
  #brand: String
  #model: String
  #price: int
  --
  +Vehicle(brand: String, model: String, price: int)
  +copy(): T
  +toString(): String
}

class Car {
  -seatCount: int
  --
  +Car(brand: String, model: String, price: int, seatCount: int)
  -Car(car: Car)
  +copy(): Car
  +toString(): String
}

class Bike {
  -hasGear: boolean
  --
  +Bike(brand: String, model: String, price: int, hasGear: boolean)
  -Bike(bike: Bike)
  +copy(): Bike
  +toString(): String
}

class PrototypeDesignPattern {
  +{static} main(args: String[]): void
}

Vehicle ..|> Prototype
Car --|> Vehicle
Car ..> Car
Bike --|> Vehicle
Bike ..> Bike
@enduml