' Generated by UML Generator
' Encoded: bLDDImCn4BtdLmnuMMctU5vqhH-W7WJHuaKyJBFZDdIRB4cgLAs_tKdQj6uHgfT0thnvysOo6JgFrizdZN1JfLkqE0FPe7DdtbirddkwaKO_g7U28p5H5O5KLZOaH6J18qqKN--fLixR1Nm8WDokRmNSOdlym4AwxYVgyMbPmWbeUeDhT9F0ABF3a9RpqSEgkhF66xzeAPiIQwJyDi45Z0uBU3Mg2War-LyJc38IIo6KzcHVK19iQD7bbpJj8aii7BDXb1uwRKNYmTYYhf9i06QcekOdq5ebsHQNslInLiWwoNtef8QUKcAOG6zhYI_Uh5W1M9TQfh5Ve5sDsX7w2pFNlbkTut-kt8UkI7oB823H5g5InnhVzvaxLzFLvF89kYiAAcDZ6aAzyHSe_p2ugnCjhZJuA6B5Zii0xBEvMOUql9VaLAtlqFF2wDX0xuE_XrTo2JDKEaDRkwJpz9nsa0LtVu79yxH2AGQ3mMUvhId22-OvGuaNWC6WZ0EE4-n48nB2iRCXwOh_x3S
' URL: http://www.plantuml.com/plantuml/uml/bLDDImCn4BtdLmnuMMctU5vqhH-W7WJHuaKyJBFZDdIRB4cgLAs_tKdQj6uHgfT0thnvysOo6JgFrizdZN1JfLkqE0FPe7DdtbirddkwaKO_g7U28p5H5O5KLZOaH6J18qqKN--fLixR1Nm8WDokRmNSOdlym4AwxYVgyMbPmWbeUeDhT9F0ABF3a9RpqSEgkhF66xzeAPiIQwJyDi45Z0uBU3Mg2War-LyJc38IIo6KzcHVK19iQD7bbpJj8aii7BDXb1uwRKNYmTYYhf9i06QcekOdq5ebsHQNslInLiWwoNtef8QUKcAOG6zhYI_Uh5W1M9TQfh5Ve5sDsX7w2pFNlbkTut-kt8UkI7oB823H5g5InnhVzvaxLzFLvF89kYiAAcDZ6aAzyHSe_p2ugnCjhZJuA6B5Zii0xBEvMOUql9VaLAtlqFF2wDX0xuE_XrTo2JDKEaDRkwJpz9nsa0LtVu79yxH2AGQ3mMUvhId22-OvGuaNWC6WZ0EE4-n48nB2iRCXwOh_x3S
' Generated on: 2025-11-25T14:18:11.947363711

@startuml
skinparam classAttributeIconSize 0
hide circle

class VehicleRegistry {
  -registry: Map<String, Vehicle<?>> = new HashMap<>()
  --
  +addPrototype(key: String, prototype: T): void
  +getPrototype(key: String): T
}

interface Prototype {
  ~copy(): T
}

abstract class Vehicle {
  #brand: String
  #model: String
  #price: int
  --
  +Vehicle(brand: String, model: String, price: int)
  +copy(): T
  +toString(): String
}

class Car {
  -seatCount: int
  --
  +Car(brand: String, model: String, price: int, seatCount: int)
  -Car(car: Car)
  +copy(): Car
  +toString(): String
}

class Bike {
  -hasGear: boolean
  --
  +Bike(brand: String, model: String, price: int, hasGear: boolean)
  -Bike(bike: Bike)
  +copy(): Bike
  +toString(): String
}

class PrototypeRegistryDesignPattern {
  +{static} main(args: String[]): void
}

VehicleRegistry o-- Vehicle
Vehicle ..|> Prototype
Car --|> Vehicle
Car ..> Car
Bike --|> Vehicle
Bike ..> Bike
@enduml