' Generated by UML Generator
' Encoded: lPJVJy8m4CVVzrSqyMM88pulIZ34H1A8Yw29CJxSscCqbfQq7Jz4_DjjnqZ43SGNtxPzltVtkRjs7MD1stmg0lF6vGmqJ0aLOCoDjPgdkSKULNB8tv5S1XFEa52kgS0WuDAY7WD5CffmpHANPlMiyb6UOf-dP1qGyYcuiKykI9cm4PE-UxiQkhGoQtirmwtOasCLSXQJhTROFNWFKmif5B32k6-QAyw2JH0Kk5M8Rl7POpIFOZHFm6YUZD45Ea5MGOWCwZcd6DSEoniyOn5S0OpclcYf3M1MIXSbGfjS4uaBSWTcujLssF114f4ze44RarGfWI2TRmp2e5SZtrILDJoAsVYVMJgydULswVARVK_PZS-aVNz55s5b4INs02Hag8ibdFswX68i-v4dZ4IZPAYBTX8NKjjIQVBpIa2Y2FSaeFPUFhfAFJdBRNZyS5jNMl0qqMgvsfxljRl4bjCDcGAN8UZCx01UNh_bEd15MgsFTlr4QWxpdypdKLJl_R6SA3gGi-E6vlvDNm
' URL: http://www.plantuml.com/plantuml/uml/lPJVJy8m4CVVzrSqyMM88pulIZ34H1A8Yw29CJxSscCqbfQq7Jz4_DjjnqZ43SGNtxPzltVtkRjs7MD1stmg0lF6vGmqJ0aLOCoDjPgdkSKULNB8tv5S1XFEa52kgS0WuDAY7WD5CffmpHANPlMiyb6UOf-dP1qGyYcuiKykI9cm4PE-UxiQkhGoQtirmwtOasCLSXQJhTROFNWFKmif5B32k6-QAyw2JH0Kk5M8Rl7POpIFOZHFm6YUZD45Ea5MGOWCwZcd6DSEoniyOn5S0OpclcYf3M1MIXSbGfjS4uaBSWTcujLssF114f4ze44RarGfWI2TRmp2e5SZtrILDJoAsVYVMJgydULswVARVK_PZS-aVNz55s5b4INs02Hag8ibdFswX68i-v4dZ4IZPAYBTX8NKjjIQVBpIa2Y2FSaeFPUFhfAFJdBRNZyS5jNMl0qqMgvsfxljRl4bjCDcGAN8UZCx01UNh_bEd15MgsFTlr4QWxpdypdKLJl_R6SA3gGi-E6vlvDNm
' Generated on: 2026-01-29T13:56:16.791527395

@startuml
skinparam classAttributeIconSize 0
hide circle

interface ThirdPartyYouTubeLib {
  ~listVideos(): List<String>
  ~getVideoInfo(id: String): String
  ~downloadVideo(id: String): void
}

class ThirdPartyYouTubeClass {
  +listVideos(): List<String>
  +getVideoInfo(id: String): String
  +downloadVideo(id: String): void
}

class CachedYouTubeClass {
  -service: ThirdPartyYouTubeLib
  -listCache: List<String>
  -videoCache: Map<String, String> = new HashMap<>()
  -needReset: boolean = false
  --
  +CachedYouTubeClass(service: ThirdPartyYouTubeLib)
  +listVideos(): List<String>
  +getVideoInfo(id: String): String
  +downloadVideo(id: String): void
  -downloadExists(id: String): boolean
  +resetCache(): void
}

class YouTubeManager {
  #service: ThirdPartyYouTubeLib
  --
  +YouTubeManager(service: ThirdPartyYouTubeLib)
  +renderVideoPage(id: String): void
  +renderListPanel(): void
  +reactOnUserInput(): void
}

class ThirdPartyYoutubelibProxy {
  +{static} main(args: String[]): void
}

ThirdPartyYouTubeClass ..|> ThirdPartyYouTubeLib
CachedYouTubeClass ..|> ThirdPartyYouTubeLib
CachedYouTubeClass *-- ThirdPartyYouTubeLib
YouTubeManager --> ThirdPartyYouTubeLib
@enduml