' Generated by UML Generator
' Encoded: XL8zJyCm4DtzApowHAwOEw1sWmqr0mDYkCP7SYAnWtq1YTB_ZfDGjr7LPh7aUnztv-TrOF3SDRK87sHRyD38eeOGDioUTXtZK-5iJZyexqL51cL1lgXHY84bjwwpvj7LAFT2Ikt1K1TMaYptLnsFB57K6RheaH9vEvJKuYZ9tec3Qh5SZTRFM4Pivw8Sh3XCsaPifcjap3TDflbd1nwJwpSPhgQcYQ5EuD7qfQzSzzmOQ1dzQ3tibw1B-t-oclBcng-W7MF8zZ5Lfk8W6o2hm9Tn_ppcQSlNjoZxScHwtIcyvV8XlQcuc5dhtrlmdTPdowpHclYV_W0
' URL: http://www.plantuml.com/plantuml/uml/XL8zJyCm4DtzApowHAwOEw1sWmqr0mDYkCP7SYAnWtq1YTB_ZfDGjr7LPh7aUnztv-TrOF3SDRK87sHRyD38eeOGDioUTXtZK-5iJZyexqL51cL1lgXHY84bjwwpvj7LAFT2Ikt1K1TMaYptLnsFB57K6RheaH9vEvJKuYZ9tec3Qh5SZTRFM4Pivw8Sh3XCsaPifcjap3TDflbd1nwJwpSPhgQcYQ5EuD7qfQzSzzmOQ1dzQ3tibw1B-t-oclBcng-W7MF8zZ5Lfk8W6o2hm9Tn_ppcQSlNjoZxScHwtIcyvV8XlQcuc5dhtrlmdTPdowpHclYV_W0
' Generated on: 2025-11-27T12:21:15.109339551

@startuml
skinparam classAttributeIconSize 0
hide circle

class RoundHole {
  -radius: int
  --
  +RoundHole(radius: int)
  +getRadius(): int
  +fits(peg: RoundPeg): boolean
}

class RoundPeg {
  -radius: int
  --
  +RoundPeg(radius: int)
  +getRadius(): int
}

class SquarePeg {
  -width: int
  --
  +SquarePeg(width: int)
  +getWidth(): int
}

class SquarePegAdapter {
  -peg: SquarePeg
  --
  +SquarePegAdapter(peg: SquarePeg)
  +getRadius(): int
}

class Shape {
  +{static} main(args: String[]): void
}

RoundHole ..> RoundPeg
SquarePegAdapter --|> RoundPeg
SquarePegAdapter *-- SquarePeg
@enduml