' Generated by UML Generator
' Encoded: dPGnRuCm48LtVeMbBgGHg7E6AgcYI1aQLOgg3bM7mro85R2HVQHIq_Itrq120TCgpSBmE7_ltPrXQWWq5LdgcPsGEMZ864_1c1cH5b51kEHAhiK7iZjlAs9aN6YUekTLLMmE114ONAFU2uxiu34M50QrX0mdR6qXCYcrVAiaheeiGjsM0_iOzo3-g1GJf4SGwKAhxFd4y_lWKGjL7dYgJ29zuQ6Zvmb9g3TWaozNYiH6eAvw-38eOpz3Oo1fdzmh4PUlhLbZq07MO-cm1kSHTtkUz2VP3EUCSlietzOnJU967FyQ4I936ZZLYsOFrlHiCaUkD90w1N_NaESOJtw6OzMRYwCFadqNUdKdTGClMo0po_Dk-B4Z_zUvCLZO-n4fjUiPEFBL1dKr1n9ABfiRMPaSx0TAWXzP1aBwe1Dpfho-jJZDXGl3p_lMkXhzDWYSFGrllaSOBYfnbzJqBTrT1O6r6mGC58TXEvgxbpzWRd4NDhLBil_1Rm
' URL: http://www.plantuml.com/plantuml/uml/dPGnRuCm48LtVeMbBgGHg7E6AgcYI1aQLOgg3bM7mro85R2HVQHIq_Itrq120TCgpSBmE7_ltPrXQWWq5LdgcPsGEMZ864_1c1cH5b51kEHAhiK7iZjlAs9aN6YUekTLLMmE114ONAFU2uxiu34M50QrX0mdR6qXCYcrVAiaheeiGjsM0_iOzo3-g1GJf4SGwKAhxFd4y_lWKGjL7dYgJ29zuQ6Zvmb9g3TWaozNYiH6eAvw-38eOpz3Oo1fdzmh4PUlhLbZq07MO-cm1kSHTtkUz2VP3EUCSlietzOnJU967FyQ4I936ZZLYsOFrlHiCaUkD90w1N_NaESOJtw6OzMRYwCFadqNUdKdTGClMo0po_Dk-B4Z_zUvCLZO-n4fjUiPEFBL1dKr1n9ABfiRMPaSx0TAWXzP1aBwe1Dpfho-jJZDXGl3p_lMkXhzDWYSFGrllaSOBYfnbzJqBTrT1O6r6mGC58TXEvgxbpzWRd4NDhLBil_1Rm
' Generated on: 2025-12-04T11:11:53.257874505

@startuml
skinparam classAttributeIconSize 0
hide circle

class DatabaseService {
  -username: String
  -phoneNumber: String
  --
  +DatabaseService()
  +getMailFromUsername(username: String): String
  +getPhoneNbrFromUsername(username: String): String
}

interface INotifier {
  ~send(message: String): void
  ~getUsername(): String
}

class Notifier {
  -username: String
  -databaseService: DatabaseService
  --
  +Notifier(username: String)
  +send(msg: String): void
  +getUsername(): String
}

abstract class BaseNotifierDecorator {
  -wrapped: INotifier
  #databaseService: DatabaseService
  --
  +BaseNotifierDecorator(wrapped: INotifier)
  +send(msg: String): void
  +getUsername(): String
}

class WhatsAppDecorator {
  +WhatsAppDecorator(wrapped: INotifier)
  +send(msg: String): void
}

class FacebookDecorator {
  +FacebookDecorator(wrapped: INotifier)
  +send(msg: String): void
}

class NotificationInterface {
  +{static} main(args: String[]): void
}

Notifier ..|> INotifier
Notifier *-- DatabaseService
BaseNotifierDecorator ..|> INotifier
BaseNotifierDecorator *-- INotifier
BaseNotifierDecorator *-- DatabaseService
WhatsAppDecorator --|> BaseNotifierDecorator
WhatsAppDecorator ..> INotifier
FacebookDecorator --|> BaseNotifierDecorator
FacebookDecorator ..> INotifier
@enduml